<svg 
 xmlns="http://www.w3.org/2000/svg"
 xmlns:xlink="http://www.w3.org/1999/xlink"
 width="1.693cm" height="1.552cm">
<defs>
<filter id="Filter_0">
    <feFlood flood-color="rgb(199, 178, 153)" flood-opacity="1" result="floodOut" />
    <feComposite operator="atop" in="floodOut" in2="SourceGraphic" result="compOut" />
    <feBlend mode="normal" in="compOut" in2="SourceGraphic" />
</filter>

</defs>
<g filter="url(#Filter_0)">
<path fill-rule="evenodd"  fill="rgb(0, 0, 0)"
 d="M46.043,42.749 C46.043,43.440 45.491,44.000 44.809,44.000 L1.234,44.000 C0.553,44.000 -0.000,43.440 -0.000,42.749 C-0.000,42.058 0.553,41.498 1.234,41.498 L44.809,41.498 C45.491,41.498 46.043,42.058 46.043,42.749 ZM21.769,22.213 C22.007,22.438 22.309,22.549 22.611,22.549 C22.941,22.549 23.270,22.416 23.513,22.152 C23.978,21.647 23.951,20.855 23.453,20.384 C21.337,18.382 21.790,14.314 23.608,12.014 C26.075,8.894 26.618,3.331 23.453,0.337 C22.955,-0.134 22.174,-0.107 21.709,0.398 C21.244,0.904 21.271,1.695 21.769,2.166 C23.670,3.964 23.627,7.989 21.682,10.450 C20.404,12.067 19.640,14.234 19.586,16.396 C19.526,18.759 20.302,20.825 21.769,22.213 ZM48.000,19.614 L48.000,22.014 C48.000,25.455 45.239,28.253 41.846,28.253 L39.091,28.253 C37.221,33.524 32.240,37.304 26.405,37.304 L19.639,37.304 C12.208,37.304 6.163,31.175 6.163,23.642 L6.163,11.232 C6.163,10.541 6.715,9.981 7.397,9.981 L15.312,9.981 C16.918,7.505 16.847,3.854 15.063,2.166 C14.565,1.695 14.538,0.904 15.003,0.398 C15.467,-0.107 16.248,-0.134 16.747,0.337 C19.911,3.331 19.368,8.894 16.902,12.014 C15.083,14.314 14.630,18.383 16.747,20.384 C17.245,20.855 17.272,21.647 16.807,22.152 C16.342,22.657 15.561,22.684 15.063,22.213 C13.595,20.825 12.820,18.759 12.879,16.396 C12.913,15.049 13.222,13.700 13.760,12.483 L8.630,12.483 L8.630,23.642 C8.630,29.796 13.569,34.802 19.639,34.802 L26.405,34.802 C32.475,34.802 37.413,29.796 37.413,23.642 L37.413,12.483 L28.135,12.483 C27.453,12.483 26.901,11.923 26.901,11.232 C26.901,10.541 27.453,9.981 28.135,9.981 L38.647,9.981 C39.329,9.981 39.881,10.541 39.881,11.232 L39.881,13.375 L41.846,13.375 C45.239,13.375 48.000,16.174 48.000,19.614 ZM45.532,19.614 C45.532,17.554 43.878,15.877 41.846,15.877 L39.881,15.877 L39.881,25.751 L41.846,25.751 C43.878,25.751 45.532,24.075 45.532,22.014 L45.532,19.614 Z"/>
</g>
</svg>